# xmcd
#
# Track frame offsets: 
#        150
#        13106
#        22856
#        34409
#
# Disc length: 662 seconds
#
# Revision: 0
# Processed by: cddbd v1.5.2PL0 Copyright (c) Steve Scherf et al.
# Submitted via: ExactAudioCopyFreeDBPlugin 1.0
#
DISCID=26029404
DTITLE=Uncle Ruby - Uncle Ruby
DYEAR=2019
DGENRE=Bluegrass
TTITLE0=Stay All Night (trad.)
TTITLE1=Lazy John (trad.)
TTITLE2=Wish I Had My Time Again (trad.)
TTITLE3=Undone In Sorrow (Ola Belle Reed)
EXTD=
EXTT0=
EXTT1=
EXTT2=
EXTT3=
PLAYORDER=
